<?xml version="1.0"?>
<svg enable-background="new -188.132 43.568 442.117 485.913" id="Layer_1" version="1.1" viewBox="-188.132 43.568 442.117 485.913" xml:space="preserve" xmlns="http://www.w3.org/2000/svg" xmlns:xlink="http://www.w3.org/1999/xlink">
    <path fill="#947960" d="M253.717,290.752c-1.065-4.514-5.095-7.702-9.732-7.702c-2.323,0-4.638-0.498-6.788-1.437  c-0.846-1.979-2.312-3.629-4.153-4.708c0.553-1.771,1.168-3.567,1.8-5.411c0.596-1.738,1.188-3.47,1.74-5.208  c0.619-1.947,1.22-3.893,1.819-5.833c1.233-3.994,2.398-7.767,3.7-11.505c1.953-5.612,3.511-11.262,5.017-16.726l0.438-1.588  c0.272-0.984,0.554-1.977,0.838-2.977c1.436-5.06,3.063-10.796,3.775-16.741c0.433-3.605-1.123-7.161-4.063-9.291  c-2.94-2.129-6.803-2.497-10.095-0.962c-3.981,1.858-8.688,3.542-14.384,5.147c-1.782,0.501-3.559,1.041-5.343,1.583  c-3.463,1.053-6.733,2.048-10.016,2.739c-2.078,0.437-4.342,0.74-6.738,1.06c-3.112,0.416-6.329,0.846-9.716,1.63  c-1.354,0.255-2.095,0.15-2.276,0.09c-2.863-4.796-4.825-8.375-6.266-12.112c-1.759-4.563-3.425-8.886-4.762-13.623  c-0.367-2.343-1.507-5.274-4.434-8.205c-0.003-0.003-0.007-0.006-0.01-0.01c-0.099-0.099-0.199-0.194-0.301-0.288  c0,0-0.001-0.001-0.001-0.001c-0.008-0.007-0.016-0.014-0.023-0.021h-0.001c-3.924-3.592-10.018-3.487-13.816,0.311  c-1.402,1.403-2.302,3.119-2.696,4.922c-2.372,2.289-5.177,5.059-7.386,8.78c-0.188,0.171-0.389,0.362-0.604,0.577  c-0.353,0.354-0.679,0.732-0.975,1.133c-0.606,0.405-1.348,0.965-2.098,1.714c-0.61,0.611-1.139,1.297-1.572,2.042  c-0.172,0.18-0.44,0.444-0.65,0.65c-0.817,0.803-1.832,1.8-2.784,3.085c-2.75,2.311-4.966,4.852-6.799,6.955  c-0.954,1.095-1.855,2.128-2.649,2.922c-0.334,0.334-0.644,0.691-0.927,1.069c-1.829,2.437-3.856,4.707-6.004,7.111  c-1.032,1.157-2.062,2.31-3.072,3.482c-2.76,3.205-5.023,6.572-6.938,9.751c-0.018-0.023-0.034-0.047-0.05-0.07  c-0.232-2.34,0.858-4.898,2.696-8.949c1.28-2.824,2.732-6.024,3.634-9.632c0.024-0.096,0.047-0.191,0.067-0.288  c0.648-2.96,1.166-5.863,1.668-8.671c0.603-3.373,1.171-6.558,1.913-9.593c0.713-2.914,1.578-5.8,2.494-8.855  c0.896-2.987,1.822-6.076,2.61-9.246c0.933-3.745,1.703-7.473,2.448-11.079c0.537-2.6,1.045-5.055,1.608-7.521  c1.04-4.547,1.848-9.108,2.629-13.52c0.316-1.79,0.635-3.584,0.969-5.383c0.395-2.125,0.879-4.284,1.391-6.569  c0.894-3.984,1.816-8.104,2.369-12.518c0.052-0.412,0.077-0.826,0.077-1.241c0-0.473,0.034-0.933,0.063-1.379  c0.174-2.796,0.535-8.616-4.197-13.348c-3.37-3.37-8.652-3.893-12.617-1.25c-4.957,3.304-10.429,5.92-16.221,8.689l-3.849,1.847  c-5.683,2.737-11.05,5.322-16.707,7.342c-0.343,0.123-0.68,0.264-1.008,0.423c-0.366-0.541-0.705-1.117-1.005-1.716  c-0.186-0.371-0.394-0.73-0.624-1.075c-0.438-0.658-0.967-2.74-1.316-4.117c-0.307-1.209-0.623-2.458-1.044-3.722  c-0.107-0.32-0.229-0.635-0.368-0.942c-0.531-1.18-1.059-2.362-1.585-3.543c-1.734-3.891-3.528-7.915-5.478-11.873  c-2.544-5.161-5.294-10.19-7.954-15.053c-1.765-3.226-3.749-6.127-5.669-8.933c-1.282-1.874-2.492-3.643-3.582-5.426  c-0.958-1.567-1.888-3.175-2.872-4.878c-1.758-3.041-3.572-6.18-5.695-9.324c-2.412-4.181-7.384-8.18-12.785-8.18  c-1.813,0-3.591,0.493-5.145,1.425c-7.082,4.25-9.01,12.136-10.287,17.355c-0.356,1.456-0.725,2.962-1.061,3.804  c-0.168,0.419-0.307,0.85-0.417,1.289c-1.224,4.898-2.766,10.613-4.913,15.863c-0.456,1.113-0.923,2.221-1.392,3.331  c-1.813,4.295-3.684,8.725-5.042,13.734c-0.029,0.054-0.058,0.108-0.086,0.164c-1.046,1.979-2.375,4.494-3.007,7.317  c-0.015,0.019-0.029,0.037-0.043,0.055c-0.904,1.16-2.528,3.242-3.322,6.313c-0.307,0.572-0.553,1.102-0.761,1.554  c-1.95,1.839-4.313,3.662-7.342,5.654c-3.725-2.522-7.397-4.797-11.135-6.901c-2.93-1.649-5.854-3.097-8.683-4.497  c-2.178-1.079-4.235-2.097-6.238-3.175c-4.839-2.604-9.25-5.371-13.297-7.972c-3.385-2.175-7.743-2.11-11.062,0.164  c-3.319,2.275-4.951,6.317-4.142,10.259c0.627,3.056,1.331,5.96,2.011,8.77c0.614,2.536,1.195,4.932,1.718,7.411  c0.57,2.702,1.114,5.406,1.658,8.107c0.566,2.813,1.132,5.625,1.725,8.427c0.548,2.591,0.975,5.248,1.426,8.061  c0.443,2.763,0.902,5.619,1.498,8.509c0.663,3.213,1.282,6.537,1.881,9.751c0.417,2.239,0.834,4.478,1.271,6.711  c1.08,5.533,2.112,11.058,3.068,16.422c0.394,2.208,0.822,4.411,1.25,6.614c0.655,3.37,1.273,6.553,1.773,9.761l0.227,1.452  c0.19,1.218,0.382,2.447,0.573,3.682c-0.053-0.071-0.105-0.142-0.158-0.213c-1.929-2.602-3.924-5.292-6.044-7.923  c-4.16-5.163-8.444-10.1-12.453-14.664c-3.871-4.41-7.998-8.367-11.988-12.194l-1.828-1.755  c-5.249-5.057-10.206-9.318-15.153-13.029c-4.197-3.148-10.115-2.517-13.555,1.448c-2.351,2.711-2.996,6.35-1.982,9.566  c-0.653,1.493-1.388,2.998-2.148,4.553c-2.368,4.847-5.004,10.246-5.734,16.725c-0.453,0.47-0.853,0.922-1.203,1.333  c-0.423,0.008-0.846,0.017-1.269,0.026c-3.634,0.078-7.067,0.148-10.247-0.183c-4.222-0.438-8.479-1.249-12.987-2.107l-2.294-0.436  c-3.168-0.596-6.383-1.464-9.786-2.384c-1.813-0.49-3.628-0.979-5.454-1.435l-0.173-0.043c-5.143-1.282-10.46-2.608-15.476-4.042  c-3.89-1.112-8.065,0.229-10.581,3.397c-2.515,3.168-2.874,7.54-0.909,11.075c1.971,3.546,3.642,7.597,5.411,11.887l1.808,4.346  c1.695,4.041,3.296,7.858,4.522,11.771c1.625,5.187,2.97,10.044,4.112,14.85c0.335,1.412,0.684,2.826,1.034,4.243  c0.898,3.644,1.749,7.094,2.395,10.56c0.151,1.183,0.485,2.229,0.901,3.139c-0.136,0.247-0.269,0.484-0.389,0.697  c-0.193,0.345-0.391,0.698-0.589,1.059c-6.919,1.257-14.11,3.513-21.211,8.585c-2.743,1.959-4.314,5.168-4.18,8.536  c0.135,3.369,1.957,6.442,4.847,8.176c4.872,2.923,9.214,5.954,12.903,9.01c1.721,1.425,3.417,3.056,5.214,4.782  c2.262,2.175,4.598,4.42,7.278,6.549c0.884,0.838,1.739,1.532,2.508,2.155c1.192,0.968,1.889,1.548,2.338,2.222  c0.965,1.448,2.263,2.604,3.819,3.383c0.274,0.15,1.001,0.696,1.482,1.057c0.852,0.64,1.851,1.39,3.002,2.093  c2.121,2.021,4.167,4.122,6.319,6.331c2.251,2.311,4.579,4.701,7.013,7.003l2.718,2.567c4.014,3.787,7.806,7.363,11.586,11.114  l1.517,1.505c3.951,3.917,8.033,7.965,11.941,12.135c1.251,1.626,2.498,3.03,3.609,4.282c1.526,1.719,2.843,3.204,3.507,4.53  c1.938,3.878,5.114,5.652,6.821,6.605c0.128,0.071,0.279,0.156,0.415,0.233c0,0.105-0.005,0.243-0.022,0.414  c-0.022,0.036-0.044,0.072-0.066,0.106c-1.154,1.857-2.838,4.567-3.168,8.174c-0.579,2.758-1.762,5.592-3.01,8.581  c-0.568,1.36-1.13,2.711-1.65,4.065c-2.253,5.878-4.042,11.044-5.465,15.791c-1.009,3.362-0.181,7.008,2.182,9.604  c2.363,2.597,5.915,3.765,9.356,3.075c2.189-0.438,4.396-0.852,6.604-1.267c3.794-0.713,7.718-1.45,11.583-2.309  c3.363-0.748,6.583-1.671,9.696-2.563c2.77-0.794,5.387-1.544,7.98-2.141c3.021-0.695,6.038-1.303,9.232-1.946  c2.78-0.56,5.655-1.139,8.522-1.779c3.868-0.865,7.89-1.652,11.779-2.413c1.954-0.382,3.908-0.765,5.861-1.159  c2.05-0.415,4.074-0.873,6.05-1.33c0,0.005-0.001,0.01-0.001,0.015c-0.364,3.994-0.708,7.768-1.21,11.521  c-0.84,6.278-1.725,12.558-2.628,18.663c-0.425,2.875-0.997,5.762-1.603,8.819c-0.632,3.19-1.286,6.489-1.783,9.881  c-0.892,6.079-1.833,12.552-2.667,18.966c-0.791,6.068-1.618,12.548-2.272,19.177c-0.464,4.706-0.667,9.431-0.862,14  c-0.08,1.854-0.159,3.705-0.255,5.544c-0.144,2.74,0.844,5.418,2.732,7.408s4.511,3.117,7.254,3.117  c3.709,0,7.559,0.096,11.282,0.188c2.788,0.069,5.566,0.138,8.318,0.171c2.715,0.034,5.425,0.038,8.133,0.041  c3.742,0.005,7.612,0.011,11.355,0.103c3.271,0.08,6.493,0.022,9.608-0.035c3.441-0.063,6.689-0.121,9.893-0.003  c3.703,0.137,7.362,0.359,11.236,0.596c2.739,0.168,5.482,0.335,8.233,0.47c3.094,0.151,6.281,0.508,9.656,0.886  c3.196,0.358,6.502,0.729,9.878,0.933c0.205,0.013,0.408,0.019,0.611,0.019c4.757,0,8.896-3.374,9.812-8.101  c0.64-3.307-0.433-6.588-2.646-8.869c-0.158-0.842-0.395-1.811-0.795-2.839c-0.666-2.353-1.348-4.683-2.024-6.998  c-1.097-3.753-2.134-7.298-3.086-10.867c-0.939-3.527-1.799-7.18-2.63-10.712c-0.626-2.664-1.251-5.319-1.914-7.958  c-0.595-2.367-1.207-4.728-1.819-7.089c-0.983-3.787-1.999-7.703-2.906-11.542c-1.449-6.125-2.849-12.363-4.273-18.75  c-0.593-2.651-1.224-5.312-1.859-7.991c-0.835-3.518-1.698-7.154-2.463-10.762c-0.048-0.227-0.104-0.451-0.167-0.674  c-0.309-1.079-0.563-2.215-0.801-3.397c2.343,0.662,4.699,1.436,7.183,2.252c2.764,0.907,5.621,1.846,8.586,2.663  c2.665,0.734,5.319,1.509,7.976,2.284c2.759,0.806,5.612,1.638,8.474,2.424c3,0.824,5.975,1.487,8.852,2.129  c2.724,0.607,5.296,1.182,7.806,1.865c2.945,0.804,5.908,1.53,8.773,2.232c2.587,0.635,5.263,1.29,7.836,1.983  c2.331,0.627,4.748,1.471,7.307,2.364c2.903,1.013,5.904,2.061,9.106,2.908c0.607,0.161,1.229,0.264,1.854,0.309  c3.398,0.228,6.72-1.088,9.125-3.643c2.337-2.481,3.431-5.785,3.001-9.065c-0.073-0.556-0.192-1.104-0.357-1.641  c-1.39-4.517-3.121-8.533-4.796-12.417c-0.917-2.129-1.784-4.14-2.534-6.101c-1.351-3.528-2.474-7.14-3.662-10.964  c-0.408-1.313-0.824-2.654-1.257-4.01c0.796-1.042,1.509-2.068,2.18-3.033c0.892-1.281,1.739-2.501,2.521-3.367  c2.051-1.614,4.2-3.146,6.465-4.761c2.709-1.932,5.511-3.929,8.23-6.146c2.768-2.257,5.448-4.569,8.039-6.806  c2.187-1.887,4.251-3.669,6.376-5.432c1.95-1.616,3.913-3.222,5.884-4.833c2.843-2.324,5.781-4.728,8.7-7.183  c2.123-1.786,4.289-3.552,6.475-5.334c2.558-2.085,5.2-4.24,7.847-6.484c2.117-1.601,4.091-3.25,6.001-4.848  c1.868-1.563,3.634-3.037,5.422-4.379c0.047-0.035,0.094-0.07,0.14-0.106c4.871-3.789,8.803-7.722,12.605-11.524l0.301-0.301  c3.017-3.017,6.427-5.998,10.689-9.344c1.338-0.766,2.327-1.531,3.028-2.072c0.397-0.308,0.646-0.499,0.769-0.56  C252.604,299.92,254.782,295.266,253.717,290.752z M228.279,225.309l-0.441,1.599c-1.485,5.388-2.888,10.478-4.623,15.465  c-1.418,4.072-2.691,8.192-3.922,12.178c-0.584,1.889-1.168,3.783-1.771,5.678c-0.508,1.596-1.053,3.187-1.601,4.783  c-1.423,4.154-2.892,8.443-3.898,13.167c-1.019,3.258-0.563,6.84,1.321,9.89c1.379,2.23,3.471,4.074,5.964,5.372  c0.423,0.504,0.897,0.97,1.42,1.388c0.79,0.633,1.604,1.23,2.438,1.794c-1.157,1.067-2.265,2.132-3.339,3.205l-0.302,0.303  c-3.505,3.506-6.816,6.817-10.677,9.828c-2.183,1.641-4.212,3.337-6.175,4.979c-1.868,1.562-3.634,3.037-5.422,4.379  c-0.162,0.122-0.321,0.249-0.476,0.38c-2.568,2.183-5.208,4.335-7.762,6.417c-2.265,1.848-4.509,3.678-6.71,5.529  c-2.812,2.365-5.696,4.724-8.485,7.005c-2.006,1.64-4.005,3.274-5.988,4.92c-2.277,1.888-4.515,3.818-6.679,5.687  c-2.602,2.245-5.059,4.366-7.606,6.443c-2.22,1.808-4.642,3.535-7.206,5.363c-2.565,1.829-5.219,3.72-7.854,5.83  c-0.288,0.23-0.563,0.477-0.823,0.736c-2.131,2.131-3.719,4.415-5.119,6.431c-1.014,1.458-1.972,2.835-2.841,3.704  c-1.829,1.83-2.877,4.295-2.927,6.877c-0.023,0.288-0.072,0.634-0.115,0.98c-0.132,1.055-0.269,2.145-0.269,3.268  c0,1.074,0.173,2.143,0.513,3.162c0.703,2.109,1.382,4.293,2.038,6.404c1.23,3.957,2.502,8.049,4.081,12.175  c0.073,0.191,0.146,0.381,0.221,0.571c-2.472-0.653-4.932-1.256-7.32-1.842c-2.868-0.703-5.577-1.367-8.275-2.104  c-2.961-0.807-5.886-1.459-8.714-2.09c-2.765-0.616-5.376-1.198-7.905-1.894c-2.709-0.744-5.485-1.555-8.171-2.338  c-2.752-0.804-5.503-1.605-8.263-2.366c-2.498-0.688-5.006-1.512-7.66-2.384c-2.795-0.918-5.685-1.867-8.688-2.692  c-2.941-0.809-5.93-1.52-8.82-2.208c-2.784-0.664-5.415-1.29-7.983-1.99c-4.021-1.099-8.304,0.417-10.743,3.801  c-2.438,3.383-2.521,7.924-0.208,11.394c1.535,2.304,2.146,5.617,2.855,9.455c0.423,2.292,0.899,4.877,1.637,7.532  c0.796,3.731,1.661,7.379,2.5,10.91c0.615,2.593,1.226,5.166,1.799,7.73c1.439,6.451,2.854,12.758,4.33,18.995  c0.956,4.049,2,8.072,3.01,11.963c0.6,2.31,1.199,4.62,1.781,6.939c0.64,2.542,1.24,5.099,1.843,7.662  c0.864,3.674,1.758,7.473,2.774,11.287c0.983,3.688,2.066,7.402,3.119,11.001c-1.396-0.122-2.806-0.225-4.224-0.294  c-2.669-0.131-5.333-0.293-7.993-0.456c-3.821-0.232-7.773-0.474-11.716-0.619c-1.621-0.06-3.229-0.082-4.818-0.082  c-2.092,0-4.154,0.038-6.177,0.074c-3.039,0.057-5.909,0.108-8.753,0.038c-3.974-0.098-7.962-0.103-11.819-0.108  c-2.634-0.003-5.272-0.007-7.917-0.039c-2.67-0.032-5.364-0.1-8.066-0.166c-0.438-0.011-0.877-0.022-1.319-0.033  c0.14-2.823,0.31-5.564,0.576-8.267c0.626-6.342,1.43-12.645,2.201-18.558c0.816-6.267,1.743-12.647,2.623-18.646  c0.425-2.897,1.003-5.813,1.614-8.898c0.625-3.157,1.272-6.422,1.769-9.779c0.916-6.195,1.813-12.565,2.666-18.935  c0.559-4.174,0.938-8.337,1.304-12.362c0.207-2.266,0.413-4.532,0.651-6.799c0.025-0.238,0.042-0.478,0.05-0.718  c0.016-0.101,0.035-0.202,0.052-0.303c0.309-1.797,1.188-6.921-2.45-11.667c-0.515-0.812-1.149-1.555-1.892-2.198  c-2.251-1.953-5.256-2.798-8.198-2.312c-3.894,0.649-7.643,1.521-11.268,2.364c-2.378,0.553-4.625,1.075-6.874,1.53  c-1.912,0.387-3.826,0.761-5.739,1.135c-4.019,0.787-8.174,1.6-12.302,2.522c-2.658,0.595-5.304,1.127-8.106,1.691  c-3.187,0.642-6.482,1.305-9.772,2.063c-3.107,0.716-6.103,1.574-9,2.404c-2.959,0.848-5.755,1.648-8.529,2.266  c-0.195,0.043-0.39,0.086-0.585,0.129c0.253-0.619,0.512-1.238,0.771-1.86c1.602-3.836,3.417-8.185,4.335-13.239  c0.005-0.026,0.009-0.053,0.014-0.079c0.115-0.19,0.248-0.404,0.36-0.584c0.448-0.721,1.005-1.617,1.519-2.645  c0.326-0.652,0.58-1.339,0.757-2.046c2.716-10.867-1.892-17.504-4.881-20.493c-1.672-1.672-3.346-2.682-4.562-3.368  c-1.691-2.862-3.705-5.132-5.516-7.172c-1.051-1.184-2.043-2.302-2.916-3.465c-0.215-0.286-0.445-0.561-0.689-0.822  c-4.276-4.582-8.62-8.89-12.821-13.056l-1.51-1.498c-3.96-3.93-8.021-7.762-11.949-11.467l-2.699-2.549  c-2.136-2.021-4.222-4.162-6.43-6.429c-2.491-2.558-5.066-5.201-7.84-7.79c-0.701-0.654-1.464-1.189-2.322-1.619  c-0.274-0.15-1.001-0.696-1.482-1.057c-0.641-0.481-1.364-1.024-2.174-1.563c-1.725-2.081-3.493-3.516-4.868-4.632  c-0.581-0.471-1.128-0.915-1.448-1.235c-0.293-0.293-0.605-0.568-0.933-0.823c-2.043-1.589-4.036-3.504-6.146-5.532  c-1.829-1.758-3.715-3.571-5.798-5.334c0.814-0.122,1.65-0.235,2.511-0.344c4.098-0.512,7.452-3.462,8.454-7.468  c0.155-0.519,0.927-1.897,1.438-2.81c1.761-3.144,3.953-7.057,3.953-11.96c0-3.25-1.409-5.633-2.606-7.129  c-0.687-3.389-1.497-6.673-2.284-9.868c-0.336-1.364-0.671-2.723-0.994-4.082c-1.252-5.266-2.719-10.565-4.485-16.203  c-1.322-4.222-2.918-8.155-4.505-11.955c0.352,0.095,0.704,0.19,1.056,0.285c3.623,0.979,7.369,1.991,11.304,2.731l2.25,0.427  c4.719,0.899,9.598,1.828,14.663,2.354c4.417,0.458,8.644,0.37,12.731,0.285c1.525-0.032,3.054-0.064,4.586-0.064  c1.075,0,2.143-0.173,3.162-0.513c4.059-1.353,6.467-4.245,7.906-5.972c0.182-0.218,0.404-0.484,0.59-0.698  c0.726-0.27,1.42-0.624,2.067-1.055c2.955-1.971,4.671-5.236,4.591-8.735c-0.018-0.77-0.149-2.067-0.725-3.514  c0.505-2.236,1.567-4.592,2.869-7.283c0.564,0.53,1.133,1.071,1.706,1.623l1.86,1.786c3.855,3.697,7.497,7.189,10.802,10.955  c3.864,4.4,7.982,9.145,11.908,14.017c1.868,2.318,3.658,4.732,5.553,7.287c1.233,1.663,2.495,3.364,3.802,5.069  c0.285,1.657,0.985,3.226,2.047,4.553c4.516,5.646,11.769,9.004,18.5,8.549c5.464-0.368,10.166-3.189,12.897-7.743  c0.132-0.22,0.255-0.444,0.37-0.673l0.207-0.397c1.025-1.943,3.424-6.495,1.685-11.905c-0.405-1.259-1.11-2.773-2.338-4.26  c-0.552-3.94-1.163-7.848-1.757-11.659l-0.226-1.447c-0.558-3.576-1.241-7.094-1.902-10.495c-0.408-2.103-0.817-4.206-1.193-6.313  c-0.975-5.469-2.027-11.101-3.127-16.74c-0.425-2.178-0.832-4.361-1.239-6.544c-0.616-3.307-1.253-6.726-1.955-10.127  c-0.506-2.457-0.911-4.974-1.338-7.639c-0.47-2.928-0.957-5.957-1.606-9.029c-0.579-2.738-1.132-5.485-1.685-8.234  c-0.158-0.787-0.317-1.574-0.476-2.361c0.452,0.224,0.901,0.447,1.347,0.667c2.715,1.344,5.279,2.614,7.748,4.003  c4.352,2.449,8.626,5.182,13.068,8.355c1.665,1.188,3.652,1.838,5.695,1.862c0.202,0.014,0.416,0.043,0.63,0.068  c0.771,0.089,1.729,0.199,2.804,0.199c1.812,0,3.591-0.493,5.145-1.425c4.666-2.8,10.682-6.673,15.829-11.82  c1.76-1.761,2.657-3.703,3.25-4.989c0.033-0.071,0.065-0.142,0.097-0.213c0.929-1.21,1.566-2.614,1.868-4.103  c0.915-1.185,2.257-3.038,3.148-5.71c0.225-0.674,0.376-1.369,0.454-2.073c0.249-0.589,0.778-1.59,1.114-2.227  c0.269-0.508,0.523-0.99,0.742-1.429c0.326-0.653,0.58-1.339,0.757-2.047c0.999-3.998,2.638-7.879,4.373-11.989  c0.498-1.178,0.994-2.354,1.477-3.536c2.509-6.133,4.248-12.409,5.616-17.829c0.645,1.106,1.305,2.224,1.985,3.337  c1.357,2.22,2.771,4.287,4.14,6.286c1.718,2.512,3.342,4.884,4.628,7.236c2.56,4.68,5.206,9.519,7.561,14.295  c1.778,3.612,3.417,7.286,5.15,11.176c0.456,1.023,0.913,2.047,1.372,3.07c0.157,0.532,0.328,1.207,0.507,1.913  c0.726,2.86,1.619,6.381,3.697,9.727c3.178,6.113,7.935,10.976,13.442,13.729c1.388,0.694,2.919,1.056,4.472,1.056  c5.24,0,8.514-3.205,9.961-4.662c6.074-2.271,11.699-4.98,17.152-7.607l3.797-1.822c0.772-0.369,1.548-0.74,2.326-1.114  c-0.511,2.281-1.036,4.636-1.481,7.034c-0.344,1.854-0.672,3.704-0.998,5.549c-0.772,4.363-1.502,8.483-2.432,12.546  c-0.611,2.671-1.164,5.347-1.698,7.935c-0.737,3.568-1.434,6.939-2.27,10.294c-0.675,2.712-1.493,5.442-2.36,8.333  c-0.948,3.164-1.93,6.435-2.765,9.85c-0.892,3.647-1.544,7.297-2.174,10.827c-0.479,2.684-0.933,5.223-1.481,7.751  c-0.474,1.818-1.417,3.897-2.413,6.094c-2.644,5.827-5.933,13.08-3.891,22.27c0.074,0.335,0.166,0.667,0.274,0.993  c2.352,7.053,10.164,14.88,19.168,15.772c6.277,0.625,11.923-2.314,15.09-7.857c0.02-0.035,0.039-0.07,0.059-0.105  c2.646-4.764,4.728-7.901,6.958-10.49c0.932-1.082,1.882-2.145,2.836-3.213c2.194-2.457,4.459-4.993,6.669-7.882  c1.081-1.119,2.09-2.276,3.07-3.401c1.776-2.038,3.455-3.963,5.229-5.294c1.073-0.805,1.972-1.815,2.644-2.971  c0.172-0.18,0.44-0.444,0.65-0.65c0.733-0.721,1.626-1.597,2.489-2.699c1.003-0.675,2.313-1.74,3.53-3.441  c0.052-0.047,0.104-0.094,0.157-0.144c0.161,0.42,0.322,0.838,0.483,1.255c2.227,5.779,5.262,11.01,8.179,15.873  c0.177,0.294,0.369,0.58,0.575,0.854c5.114,6.819,13.102,9.542,22.495,7.662c0.11-0.022,0.221-0.046,0.33-0.071  c2.501-0.589,5.161-0.944,7.979-1.321c2.654-0.354,5.399-0.721,8.207-1.312c4.143-0.871,7.994-2.042,11.719-3.175  c1.396-0.425,2.787-0.848,4.182-1.25C228.284,225.289,228.282,225.299,228.279,225.309z" />
</svg>