<?xml version="1.0" ?><svg style="enable-background:new 0 0 32 32;" version="1.1" viewBox="0 0 32 32"
	xml:space="preserve" xmlns="http://www.w3.org/2000/svg" xmlns:xlink="http://www.w3.org/1999/xlink">
	<g>
		<path fill="#f3f2f3"
			d="M18,16.5l-3.6,1.7c-0.3,0.2-0.7-0.1-0.7-0.5v-3.5c0-0.4,0.4-0.6,0.8-0.5l3.6,1.8C18.4,15.8,18.4,16.4,18,16.5    z" />
		<path fill="#f3f2f3"
			d="M16,2C8.3,2,2,8.3,2,16s6.3,14,14,14s14-6.3,14-14S23.7,2,16,2z M24.6,18.2c0,2.2-1.7,3.9-3.9,3.9h-9.4    c-2.1,0-3.9-1.7-3.9-3.9v-4.3c0-2.2,1.7-3.9,3.9-3.9h9.4c2.1,0,3.9,1.7,3.9,3.9V18.2z" />
	</g>
</svg>