<?xml version="1.0" standalone="no"?>
<!DOCTYPE svg PUBLIC "-//W3C//DTD SVG 1.1//EN" "http://www.w3.org/Graphics/SVG/1.1/DTD/svg11.dtd">
<svg xmlns="http://www.w3.org/2000/svg" version="1.1" id="svg12164" x="0px" y="0px" viewBox="0 0 1613.691 1666.908" enable-background="new 0 0 1613.691 1666.908" width="1613.6910400390625" height="1666.907958984375"> <path d="M1568.028,1552.224c-44.536,11.575-92.853-10.522-191.438-45.862c-95.342-34.176-163.458-67.966-230.48-114.335 c-49.525-34.263-31.111-15.773-67.726-49.651c-15.644-14.475-37.154-30.923-47.799-36.552c-10.646-5.629-22.544-13.453-26.44-17.388 c-6.944-7.013-6.863-7.365,4.074-17.838c12.638-12.1,63.689-48.554,67.997-48.554c3.314,0,52.044-29.127,52.044-61.643 c0-24.227-5.825-33.672-25.846-41.906c-40.132-16.506-130.832-38.214-246.362-41.888c-39.398-1.253-71.634-3.043-71.634-3.977 c0-8.587,137.422-405.338,146.755-437.181c3.333-11.371,7.479-16.985,15.005-20.32c13.012-5.765,27.223-26.026,30.895-44.049 c3.155-15.485,0.897-15.052-14.791-25.867c46.628-135.892,93.933-288.308,149.881-511.76h-16.296 c-55.662,193.124-71.638,281.109-118.915,412.584c-31.282,86.994-18.031,92.535-50.502,96.472 c-26.72,3.239-21.332,10.756-47.845,22.998c-18.464,8.525-31.278,16.247-40.702,21.702c0-24.053,15.206-65.028,15.255-81.57 c0.025-8.761,6.917-15.888,24.725-25.568c3.817-2.075,8.581-12.701,11.741-26.187c16.623-70.948-15.375-26.426-4-76.83 c5.492-24.333,13.607-52.729,16.226-62.189c-0.097-0.02-0.192-0.045-0.289-0.066l77.081-281.346h-17.073 C830.437,512.097,891.07,359.076,805,440.422c-87.777,82.959-138.339,89.868-195.961,141.863 c-59.345,53.55-49.229,32.546-129.474,80.187c-39.301,23.333-75.756,39.312-89.693,39.316c-14.659,0.004-42.221-23.738-47.992-41.34 c-9.773-29.814,4.957-64.376-26.062-58.957c-15.641,2.732-30.821-11.433-42.989-11.433c-14.864,0-13.798-20.54-37.514-3.492 c-15.242,10.958-34.509,4.182-52.831,10.549c-7.263,2.524-13.921,2.356-22.789-0.575c-11.891-3.93-13.57-3.384-32.968,10.713 c-29.937,21.755-26.699,16.039-30.158,116.483c27.852,49.188,31.505,51.219,20.626,76.069 c-14.118,32.247-78.214,26.69-67.823,64.527c5.098,18.563-27.203,24.004-13.628,47.187c4.679,7.99,13.159,9.17,9.886,1.376 c-1.567-3.732-0.24-5.067,4.337-4.365c12.829,1.972-1.577-21.682,9.971-21.682c3.191,0,8.198-3.126,11.125-6.946 c5.229-6.822,5.414-6.792,10.394,1.712c4.407,7.526,4.173,9.564-1.79,15.586c-3.773,3.81-9.966,7.829-13.761,8.93 c-10.228,2.967-12.025,24.401-22.961,29.751c-16.718,8.176-2.21,16.886,16.983,3.088l10.066-7.236 c0,18.475-1.251,27.582,7.39,31.808c10.324,5.05,16.724,4.504,14.32-1.222c-5.176-12.326,20.364-26.516,47.819-26.569 c12.431-0.023,29.803-18.804,29.803-32.219c0-11.973,9.742-19.578,12.542-9.791c5.418,18.937,29.696,4.702,18.977,1.11 c-14.492-4.857,8.919-26.453,40.713-37.556c37.612-13.135,40.393-16.912,40.85-55.485c0.396-33.415,3.282-47.643,9.665-47.643 c2.326,0,2.814,5.992,1.258,15.472c-11.474,69.927,138.435,193.874,184.099,244.234c60.956,61.432,39.633,155.96,105.139,218.769 c34.888,33.452-5.834,27.568,49.033,40.879c66.37,16.102,80.665,17.917,96.49,12.248c19.984-7.159,9.336-4.715,67.545,23.568 c17.786,8.642,32.873,17.337,33.527,19.323c1.422,4.317-28.22,57.79-85.151,113.359c-51.892,0-54.028-1.255-61.259,8.832 c-13.215,18.432,8.187,40.082-3.23,113.771c-4.12,26.591,4.93,52.153,22.033,62.221c20.151,11.878,23.85,8.863,22.299-18.178 c-0.93-16.228,0.027-23.503,3.091-23.503c2.441,0,3.407-1.525,2.146-3.389c-5.389-7.97,24.168-41.109,74.43-117.354 c38.78-58.826,105.121-109.688,108.061-109.688c6.985,0.026,98.122,34.973,132.848,72.171 c94.833,101.584,331.776,76.826,332.139,168.91c0.076,19.418,41.079,13.99,52.304,9.602c6.344-2.479,30.343-4.294,58.511-4.427 c45.376-0.212,48.665-0.716,66.002-10.112C1586.52,1572.916,1588.52,1546.898,1568.028,1552.224z M110.379,875.017 c-8.406,2.946-13.641-4.503-13.641,2.691c0,5.554-10.173,16.349-6.255-1.555c3.622-16.553,7.958-19.173,17.421-10.524 C114.552,871.706,114.998,873.397,110.379,875.017z M109.658,855.423c-7.468,0-2.968-6.983,4.722-6.983 C121.847,848.44,117.35,855.423,109.658,855.423z M638.486,652.908c48.177-28.412,96.463-67.929,130.128-106.495 c11.559-13.242,52.886-63.528,65.91-51.625c2.613,2.388-11.194,76.737-17.765,95.658c-2.581,7.432-28.718,20.228-77.475,37.929 c-52.789,19.165-81.564,44.233-114.922,53.789h0C582.005,694.299,564.665,696.443,638.486,652.908z M706.682,1028.505 c-7.704,6.324-65.966-76.102-84.848-108.486c-16.747-28.723-35.659-51.958-47.189-66.778c11.502-40.253,15.499-46.749-4.856-62.403 c-6.455-4.964-11.091-9.588-10.302-10.276c0,0,138.289-46.904,208.257-86.043c46.155-25.819,19.911-16.47-36.779,241.212 c-1.907,8.642-7.72,32.744-12.917,53.562C716.587,995.146,711.559,1024.481,706.682,1028.505z M737.878,1065.909 c-12.894-7.31-18.105-17.682-14.532-28.921c2.235-7.029,84.553-343.772,88.468-358.293c4.029-14.948,11.892-21.694,60.18-51.638 c16.938-10.503,22.861-12.427,32.474-10.548c6.466,1.264,12.485,2.911,13.375,3.661c4.312,3.629-98.257,281.367-109.888,319.725 C764.693,1082.565,764.472,1080.987,737.878,1065.909z M930.294,1213.316v0.001c-16.293,12.528-15.186,10.683-38.44-8.032 c35.35-5.805,27.064-1.894,44.722-0.965C939.364,1204.467,936.537,1208.515,930.294,1213.316z"/> </svg>