<?xml version="1.0" encoding="utf-8"?>
<!-- Generator: Adobe Illustrator 22.0.0, SVG Export Plug-In . SVG Version: 6.00 Build 0)  -->
<svg version="1.1" xmlns="http://www.w3.org/2000/svg" xmlns:xlink="http://www.w3.org/1999/xlink" x="0px" y="0px"
	 viewBox="0 0 141.7 141.7" style="enable-background:new 0 0 141.7 141.7;" xml:space="preserve">
<g>
	<path fill="#947960" d="M37.3,121.5c0.4,0.1,0.5-0.1,0.7-0.1c0.3-0.1,0.6-0.3,0.8-0.5c1-0.6,1.9-1.4,2.8-2.1c1.8-1.5,3.5-3,5.2-4.6
		c6.7-6.3,13-12.9,19-19.8c0.7-0.9,1.5-1.7,2.2-2.6c2.2,0.3,4.4-0.3,6.5-0.7c2.5-0.6,4.9-1.6,7.2-2.9c2.2-1.3,4.3-2.8,6.2-4.5
		c1.9-1.7,3.7-3.5,5.4-5.3c3.5-3.6,7-7.3,10.2-11.2c3.3-3.8,6.4-7.8,9.4-11.8c3-4.1,5.8-8.2,8.4-12.5c-2.9,4.1-5.9,8.2-9,12.1
		c-3.1,3.9-6.4,7.8-9.8,11.5c-3.4,3.7-6.8,7.3-10.4,10.8c-1.8,1.7-3.6,3.5-5.5,5.1c-1.9,1.6-3.9,3-6.1,4.2c-2.1,1.2-4.3,2.4-6.6,3.2
		c-1.1,0.4-2.3,0.8-3.5,1c-0.6,0.1-1.2,0.1-1.8,0.1c1.9-2.4,3.8-4.8,5.5-7.3c1.3-1.9,2.5-3.8,3.6-5.8c1.1-2,2-4.1,2.5-6.3
		c0.1,0,0.2,0.1,0.2,0.1c0.3,0.1,0.5,0.2,1.1,0.2c0.1,0,0.4-0.2,0.4-0.4c0.1-0.2,0-0.3,0-0.4c-0.1-0.2-0.1-0.3-0.2-0.5
		c-0.2-0.3-0.4-0.5-0.5-0.7c-0.7-0.9-1.6-1.7-2.4-2.5c-1.7-1.6-3.5-3-5.4-4.4c-0.9-0.7-1.9-1.3-2.9-1.9c-0.5-0.3-1-0.6-1.5-0.9
		c-0.6-0.3-1.2-0.5-1.8-0.6c-0.8-0.1-1.6,0-2.4,0.2c-0.3-0.4-0.5-0.8-0.6-1.2c-0.2-0.9,0.1-2,0.5-2.9c0.4-1,1-1.9,1.6-2.9
		c1.3-1.8,2.7-3.6,4.1-5.4c2.9-3.5,6.1-6.7,9.5-9.7c1.7-1.5,3.4-3,5.1-4.5c1.7-1.5,3.6-2.9,5.2-4.5c-1,0.6-1.9,1.3-2.9,1.8
		c-1,0.6-2,1.2-2.9,1.9c-1.9,1.3-3.7,2.7-5.5,4.1c-3.5,2.9-6.8,6.2-9.8,9.8c-1.5,1.8-2.9,3.6-4.1,5.6c-0.6,1-1.2,2-1.7,3.2
		c-0.4,1.1-0.8,2.4-0.4,3.7c0.1,0.5,0.3,1,0.6,1.4c0,0-0.1,0-0.1,0.1c-1.1,0.5-2.1,1.2-3,2c-1.8,1.5-3.3,3.4-4.7,5.2
		c-1.4,1.9-2.6,3.8-3.8,5.8c-1.2,2-2.2,4.1-3.1,6.2c-3.8,8.4-7.1,17-9.4,25.9c-1.2,4.4-2.1,8.9-2.5,13.5c0,0.6-0.1,1.2-0.1,1.7
		c0,0.1,0,0.1,0,0.3c0,0.1,0,0.2,0.1,0.3C37,121.4,37.2,121.5,37.3,121.5z M67.1,60.8c0.5,0,1,0.2,1.4,0.4c0.5,0.2,1,0.5,1.5,0.8
		c1,0.5,1.9,1.1,2.9,1.8c1.9,1.2,3.7,2.7,5.4,4.1c0.8,0.8,1.7,1.5,2.4,2.4c0.2,0.2,0.3,0.4,0.5,0.6c0,0.1,0.1,0.1,0.1,0.2
		c-0.1,0-0.3-0.1-0.4-0.1c-0.2-0.1-0.5-0.2-0.8-0.3c-2-1-3.9-2.3-5.8-3.5c-1.9-1.3-3.7-2.6-5.6-4c-0.9-0.7-1.9-1.3-2.7-2.1
		c0,0-0.1-0.1-0.1-0.1C66.3,60.8,66.7,60.8,67.1,60.8z M40.6,105.7c1.2-4.4,2.7-8.7,4.3-12.9c1.6-4.2,3.4-8.4,5.5-12.5
		c1.1-2,2.2-4,3.3-5.9c1.1-2,2.3-3.9,3.6-5.7c1.3-1.8,2.7-3.6,4.3-5.1c0.8-0.7,1.7-1.4,2.6-1.9c0.1-0.1,0.3-0.1,0.5-0.2
		c0.2,0.2,0.4,0.4,0.6,0.5c0.9,0.7,1.9,1.4,2.8,2c1.9,1.3,3.8,2.6,5.7,3.9c1.9,1.3,3.8,2.5,5.9,3.5c0.2,0.1,0.4,0.2,0.6,0.2
		c-0.5,2.2-1.5,4.3-2.6,6.2c-1.1,2-2.4,3.9-3.7,5.8c-1.8,2.5-3.8,5-5.8,7.4c-0.4,0-0.9-0.1-1.3-0.3c-0.5-0.2-1-0.5-1.3-0.8
		c-0.1-0.2-0.2-0.3-0.1-0.5c0-0.2,0.1-0.4,0.3-0.6c0.6-0.9,1.7-1.7,2.3-3.1c0.2-0.3,0.3-0.7,0.3-1.1c0-0.2,0-0.4,0-0.6
		c0-0.2-0.1-0.5-0.2-0.7c-0.4-0.9-1.2-1.4-2-1.6c-1.7-0.4-3.3,0.6-4.2,1.7c-0.9,1.1-1.3,2.5-1.9,3.1c-0.3,0.3-0.6,0.4-0.8,0.4
		c-0.1,0-0.2,0-0.2-0.1c-0.1-0.1-0.2-0.2-0.2-0.4c0-0.2-0.1-0.4,0-0.6c0-0.2,0.1-0.4,0.2-0.6c0.2-0.4,0.6-0.8,1-1.3
		c0.8-0.9,2-2,2-3.8c0-0.9-0.5-1.8-1.2-2.2c-0.7-0.5-1.5-0.7-2.2-0.6c-1.6,0.1-2.7,1.1-3.6,2.1c-0.9,1-1.4,2.2-2.4,2.7
		c-0.5,0.2-1.1,0.3-1.6,0c-0.5-0.3-0.8-1-0.4-1.6c-0.4,0.5-0.3,1.3,0.3,1.8c0.5,0.5,1.3,0.5,2,0.3c1.4-0.4,2.1-1.7,3-2.5
		c0.8-0.8,1.9-1.5,2.8-1.5c0.5,0,1,0.2,1.3,0.5c0.3,0.3,0.5,0.6,0.5,1c0,0.4-0.2,0.8-0.5,1.3c-0.3,0.4-0.7,0.8-1.2,1.3
		c-0.5,0.5-1,1-1.3,1.7c-0.2,0.3-0.4,0.8-0.4,1.2c-0.1,0.4-0.1,0.9,0,1.3c0.1,0.4,0.3,0.9,0.6,1.3c0.3,0.4,0.9,0.7,1.4,0.8
		c1.1,0.1,2-0.4,2.6-1c0.6-0.6,0.9-1.3,1.1-1.9c0.3-0.5,0.5-1,0.8-1.5c0.6-0.9,1.5-1.4,2.3-1.3c0.4,0.1,0.8,0.3,0.9,0.6
		c0,0.1,0.1,0.1,0.1,0.2c0,0.1,0,0.2,0,0.3c0,0.2-0.1,0.5-0.1,0.7c-0.4,1-1.3,1.9-2,3c-0.2,0.3-0.4,0.7-0.4,1.1
		c-0.1,0.5,0.2,1,0.4,1.3c0.5,0.6,1.2,0.9,1.8,1.1c0.3,0.1,0.6,0.1,0.9,0.2c-0.7,0.8-1.4,1.6-2.1,2.4c-6,6.8-12.5,13.4-19.2,19.5
		c-1.7,1.5-3.4,3-5.2,4.5c-0.9,0.7-1.8,1.4-2.7,2c-0.2,0.1-0.3,0.2-0.5,0.3c0-0.5,0.1-1,0.1-1.4C38.4,114.5,39.4,110,40.6,105.7z"/>
</g>
</svg>
