<?xml version="1.0" encoding="utf-8"?>
<!-- Generator: Adobe Illustrator 22.0.0, SVG Export Plug-In . SVG Version: 6.00 Build 0)  -->
<svg version="1.1" xmlns="http://www.w3.org/2000/svg" xmlns:xlink="http://www.w3.org/1999/xlink" x="0px" y="0px"
	viewBox="0 0 141.7 141.7" style="enable-background:new 0 0 141.7 141.7;" xml:space="preserve">
	<g>
		<path fill="#947960" d="M84.6,79.1c1.9-2.9,3.5-6.1,4.2-9.6c-0.8,3.5-2.4,6.6-4.4,9.5c-2,2.9-4.5,5.5-7.1,7.9
			c-2.6,2.4-5.5,4.5-8.5,6.3c-1.5,0.9-3.1,1.7-4.7,2.3c-0.8,0.3-1.6,0.6-2.5,0.7c-0.8,0.1-1.7,0.2-2.3-0.1c-0.6-0.3-1-1.1-1.2-1.9
			c-0.2-0.8-0.3-1.7-0.3-2.5v-0.4c1.7-2,3.4-4.1,5-6.2c1.9-2.5,3.7-5.1,5.3-7.8c1.1-1.9,2.2-3.9,3-6.1c0.1-0.4,0.3-0.7,0.4-1.1
			c0.1-0.5,0.3-0.9,0.4-1.4c-0.7,3.1-2.3,5.8-3.9,8.5c-1.7,2.7-3.5,5.2-5.5,7.6c-1.5,1.9-3,3.7-4.6,5.5c-0.4,0.4-0.7,0.8-1.1,1.3
			c-2.2,2.5-4.5,4.9-6.8,7.3c-4.4,4.5-8.9,8.8-13.6,13c-1.2,1-2.4,2-3.6,3c-0.6,0.5-1.2,1-1.8,1.4c-0.3,0.2-0.6,0.4-0.9,0.6l0-0.1
			l0.1-1.1c0.1-0.8,0.2-1.5,0.4-2.3l1-4.5c1.2-6.1,2.8-12.1,4.8-18.1c2-5.9,4.5-11.7,7.6-17.1c1.5-2.7,3.2-5.4,5.1-7.8
			c0.9-1.2,1.9-2.4,3-3.5c1.1-1.1,2.2-2.1,3.5-2.8c1.2-0.8,2.6-1.2,3.9-0.9l0.5,0.1l0.5,0.2c0.3,0.2,0.7,0.3,1,0.5
			c0.7,0.4,1.3,0.8,2,1.1c1.1,0.7,2.3,1.4,3.4,2.2c0.5,0.3,1,0.7,1.6,1c0.9,0.6,1.9,1.3,2.8,2c-0.7-0.9-1.5-1.7-2.3-2.5
			c0.1-0.1,0.2-0.2,0.3-0.3c1.1-1.3,2.3-2.5,3.7-3.3c0.2-0.1,0.3-0.2,0.5-0.3c1.2,1.2,2.5,1.9,3.8,2.8l4.4,3c1.5,1,3,2,4.5,2.9
			c0.8,0.5,1.5,0.9,2.4,1.3c0.2,0.1,0.3,0.2,0.5,0.2c0.2,0.1,0.5,0.2,0.8,0.3c0.1,0,0.3,0,0.5,0c0.1,0,0.3-0.1,0.4-0.3
			c0.1-0.2,0.1-0.3,0.1-0.4c-0.1-0.4-0.2-0.5-0.3-0.8c-1.1-1.5-2.4-2.7-3.8-3.9c-1.3-1.2-2.8-2.3-4.2-3.3c-1.4-1.1-2.9-2.1-4.5-2.9
			c-0.8-0.5-1.9-0.7-2.9-0.7c-0.5,0-1,0.1-1.5,0.2c-0.3-0.5-0.5-1.1-0.5-1.7c0-0.8,0.3-1.5,0.6-2.3c0.7-1.5,1.7-2.9,2.8-4.3
			c2.1-2.8,4.4-5.5,6.8-8c2.5-2.5,5-4.9,7.7-7.2c1.3-1.2,2.7-2.3,4-3.4c1.3-1.1,2.7-2.3,4-3.5c-0.8,0.5-1.5,1-2.2,1.5
			c-0.7,0.5-1.5,0.9-2.3,1.4c-1.5,1-2.9,2-4.4,3.1c-2.8,2.2-5.5,4.5-8,7.1s-4.8,5.3-6.9,8.2c-1,1.5-2,3-2.8,4.7
			c-0.3,0.9-0.6,1.8-0.6,2.8c0,0.8,0.2,1.5,0.6,2.2c-0.1,0-0.1,0.1-0.2,0.1c-1.8,0.8-3.2,2.1-4.4,3.5c-0.1,0.1-0.1,0.2-0.2,0.3
			c-1-0.9-2.2-1.8-3.3-2.6c-0.7-0.5-1.3-0.9-2-1.3c-0.3-0.2-0.7-0.4-1-0.6c-0.2-0.1-0.4-0.2-0.6-0.3l-0.7-0.2
			c-1.9-0.4-3.7,0.2-5.1,1.1c-2.9,1.8-4.9,4.4-6.7,7c-1.8,2.6-3.4,5.4-4.8,8.2c-1.4,2.8-2.8,5.6-4,8.5c-1.2,2.9-2.5,5.8-3.6,8.7
			c-2.3,5.9-4.4,11.8-5.8,18c-0.3,1.6-0.5,3.1-0.7,4.7c-0.1,0.8-0.2,1.6-0.2,2.4l-0.1,1.2l0,0.6l0,0.3v0.2c0,0.2,0,0.4,0.3,0.7
			c0.3,0.2,0.5,0.2,0.6,0.2c0.2,0,0.2,0,0.3,0c0.2,0,0.3-0.1,0.4-0.2c0.2-0.1,0.4-0.2,0.6-0.3c0.4-0.2,0.7-0.5,1-0.7
			c0.7-0.5,1.3-1,1.9-1.5c1.2-1,2.4-2.1,3.6-3.1c4.6-4.3,9.1-8.7,13.3-13.3c2.1-2.3,4.2-4.6,6.2-7c0.1,0.6,0.2,1.3,0.4,1.9
			c0.3,0.9,0.7,1.9,1.7,2.4c1,0.5,2,0.3,2.9,0.2c0.9-0.2,1.8-0.5,2.6-0.8c1.7-0.7,3.2-1.5,4.8-2.5c3-1.9,5.8-4.1,8.5-6.5
			C80.3,84.8,82.7,82.1,84.6,79.1z M77.2,59.3c1.5,0.8,3.1,1.7,4.5,2.6c1.5,1,2.9,2.1,4.2,3.2c1.3,1.1,2.7,2.3,3.7,3.7
			c0.1,0.1,0.1,0.2,0.2,0.3h0c-0.4-0.1-0.8-0.3-1.1-0.4c-0.8-0.4-1.5-0.8-2.3-1.3c-1.5-0.9-3-1.9-4.4-2.9c-1.5-1-2.9-2.1-4.3-3.1
			c-1-0.8-2.2-1.5-3.1-2.4C75.4,58.8,76.4,58.9,77.2,59.3z" />
		<path fill="#947960" d="M110.2,65.3c-3.1,3.6-6.3,7-9.7,10.2c-1.7,1.6-3.4,3.2-5.2,4.7c-1.8,1.5-3.5,3.2-5.4,4.5
			c-3.7,2.7-8.2,4.6-13,4.4c2.3,0.4,4.8,0.2,7.1-0.4c2.3-0.6,4.6-1.6,6.6-2.9c1-0.6,2-1.4,2.9-2.1c0.9-0.7,1.9-1.4,2.8-2.2
			c1.9-1.5,3.7-3,5.4-4.7c3.5-3.2,6.7-6.8,9.6-10.6c2.9-3.8,5.5-7.7,7.9-11.9C116.3,58,113.3,61.7,110.2,65.3z" />
	</g>
</svg>