<?xml version="1.0" encoding="utf-8"?>
<!-- Generator: Adobe Illustrator 22.0.0, SVG Export Plug-In . SVG Version: 6.00 Build 0)  -->
<svg version="1.1" xmlns="http://www.w3.org/2000/svg" xmlns:xlink="http://www.w3.org/1999/xlink" x="0px" y="0px"
	 viewBox="0 0 141.7 141.7" style="enable-background:new 0 0 141.7 141.7;" xml:space="preserve">
<g>
	<path fill="#947960" d="M66.2,65c0.6-0.2,1.3-0.3,2-0.4c1.4-0.1,2.8-0.1,4.2-0.1c2.8,0.1,5.7,0.5,8.5,0.9c2.8,0.5,5.6,1,8.4,1.9
		c2.7,0.8,5.4,1.9,8.1,3c-2.5-1.4-5.1-2.7-7.8-3.8c-2.7-1-5.5-1.8-8.4-2.3c-2.8-0.6-5.7-1-8.7-1.1C71,63,69.5,63,68,63.1
		c-0.7,0.1-1.5,0.2-2.3,0.5c-0.4,0.1-0.8,0.3-1.2,0.5c-0.4,0.2-0.8,0.6-1,1.2l0,0.1l0,0c-0.1,0.9,0.3,1.5,0.6,1.9
		c0.3,0.4,0.7,0.8,1.1,1.1c0.8,0.7,1.6,1.2,2.5,1.7c1.7,1,3.5,1.8,5.4,2.3c1,0.2,2,0.4,3,0.3c1-0.2,2-0.6,2.7-1.3
		c0.8-0.7,1-1.8,1-2.8c-0.1-1-0.4-1.9-0.9-2.7c0.4,0.9,0.6,1.8,0.6,2.7c0,0.9-0.4,1.8-1,2.4c-0.7,0.6-1.6,0.9-2.4,0.9
		c-0.9,0-1.8-0.2-2.7-0.5c-1.8-0.6-3.5-1.4-5-2.4c-0.8-0.5-1.5-1-2.2-1.6c-0.3-0.3-0.6-0.6-0.9-0.9c-0.2-0.3-0.3-0.6-0.3-0.7
		C65.1,65.5,65.6,65.1,66.2,65z"/>
	<path fill="#947960" d="M46.5,103.3L46.5,103.3L46.5,103.3c5.3,1.5,10.5,3.5,16,4.6c2.7,0.6,5.5,0.9,8.3,0.8c2.8-0.1,5.6-0.6,8.3-1.7
		l0,0l0,0c1.1-0.5,2.2-1.3,2.7-2.6c0.6-1.3,0.3-2.7-0.2-3.8c-0.5-1.1-1.2-2.1-1.9-3c-0.1-0.2-0.3-0.3-0.4-0.5
		c2.5,0.8,5.2,1.1,7.9,0.7c1.8-0.3,3.6-0.8,5.1-2.2c0.7-0.7,1.3-1.6,1.5-2.6c0.2-1,0-2.1-0.4-2.9c-0.8-1.8-2.1-3.1-3.4-4.3
		c-1.2-1.1-2.5-2-3.9-2.8c2.9,0.7,5.8,1.3,8.9,1.4c1.7,0.1,3.4-0.1,5.1-0.5c1.7-0.4,3.4-1.2,4.6-2.6c1.2-1.4,1.7-3.5,1.1-5.2
		c-0.4-1.2-1.1-2.3-2-3.1c1-0.2,1.9-0.6,2.7-1.2c1.3-0.9,2.3-2,3-3.3c0.7-1.3,1.2-2.8,1-4.4c-0.1-0.8-0.3-1.5-0.6-2.2
		c-0.3-0.7-0.7-1.4-1.1-1.9c-0.9-1.2-2.2-2.1-3.5-2.8c-1.3-0.6-2.8-1-4.2-1.3c-1.5-0.2-3.1-0.3-4.6-0.2c-0.5-2.2-0.5-4.5,0.1-6.6
		c0.8-2.7,2.5-5.1,4.5-7.1c0.5-0.6,0.9-1.2,1.2-1.9c0.2-0.7,0.3-1.5,0.1-2.3c-0.2-0.8-0.7-1.4-1.2-1.9c-0.6-0.5-1.2-0.9-1.8-1.3
		c-1.3-0.7-2.5-1.4-3.8-2c-1.3-0.6-2.8-1.1-4.3-1.1c-1.5-0.1-3.1,0.2-4.4,1c-1.4,0.9-2.2,2.1-3.1,3.3c-1.6,2.4-2.9,5-4.2,7.6
		l-1.9,3.9c-0.6,1.3-1.4,2.4-2,3.9c-0.1,0.3-0.2,0.7-0.3,1c-1.4-0.4-2.7-1-4.1-1.4c-1.4-0.4-2.9-0.6-4.4-0.7c-1.5-0.1-3.1,0-4.6,0.7
		c-0.7,0.3-1.4,1-1.9,1.7l-1.2,1.8c-1.6,2.4-3.2,4.7-4.8,7.1C47.8,70.6,41,79.9,35.2,89.8l-0.5,0.8l0.9,0c2.2,0.1,4.3,0.7,6.4,1.5
		c2.1,0.8,4,1.8,6,2.9c3.9,2.2,7.8,4.6,12.3,5.7l0.2,0l0.1-0.1c0.4-0.6,0.8-1.2,1-2c0.1-0.2,0-0.5,0-0.7c2.3,2.1,4.2,4.5,5.4,7.4
		c-0.8-2.2-2.1-4.2-3.6-6c-0.6-0.7-1.3-1.4-2-2.1c-0.1-0.3-0.3-0.5-0.5-0.7c-0.5-0.5-1.1-0.9-1.7-1.3C58.6,95,57.9,94.6,58,94
		c0-0.3,0.2-0.6,0.4-0.8c0.2-0.3,0.4-0.5,0.7-0.7c0.5-0.5,1.1-0.9,1.6-1.3c0.5-0.4,1.1-0.9,1.5-1.5c0.4-0.6,0.4-1.4,0.2-2
		c0.2,0.7,0.2,1.4-0.2,2c-0.4,0.6-0.9,1-1.5,1.4c-0.6,0.4-1.1,0.8-1.7,1.3c-0.3,0.2-0.5,0.5-0.7,0.8c-0.2,0.3-0.5,0.6-0.5,1
		c0,0.1,0,0.2,0,0.3c-1.7-1.2-3.5-2.4-5.3-3.5c-2-1.2-4.1-2.3-5.9-3.7c-0.4-0.3-0.9-0.7-1.1-1.1c-0.1-0.2-0.1-0.4-0.1-0.5
		c0.1-0.1,0.2-0.3,0.4-0.5c0.4-0.3,0.9-0.4,1.5-0.5c0.6-0.1,1.1-0.1,1.7-0.2c2.3-0.1,4.6,0,6.9,0.2c1.2,0.1,2.2,0.4,3.4,0.6
		c1.2,0.2,2.3,0.4,3.5,0.4c0.1,0,0.2,0,0.3,0c0.4,0.2,0.7,0.4,1.1,0.7c3.9,2.5,7.8,5.1,11.6,7.7c-3.7-2.9-7.5-5.5-11.3-8.2
		c-0.1-0.1-0.3-0.2-0.4-0.3c2-0.1,4-0.6,5.6-1.8c1-0.8,1.8-2,1.6-3.4c-0.1-1.4-1-2.5-2-3.2c-1-0.8-2.1-1.2-3.3-1.6
		c-1.1-0.3-2.3-0.6-3.5-0.8c-2.3-0.4-4.7-0.6-7.1-0.4c-1.2,0.1-2.4,0.2-3.5,0.7c-0.2,0.1-0.2,0.1-0.5,0.2c-0.2,0.1-0.4,0.4-0.4,0.6
		c0,0.5,0.2,0.8,0.3,1.1c0.4,0.5,0.8,1,1.2,1.4c1.7,1.6,3.7,3,5.6,4.3c1,0.6,2,1.2,3,1.8c0.1,0.1,0.2,0.1,0.3,0.2
		c-0.7-0.1-1.4-0.2-2.1-0.3c-1.1-0.2-2.3-0.5-3.5-0.6c-2.3-0.3-4.7-0.4-7-0.2c-0.6,0-1.2,0.1-1.8,0.2c-0.6,0.1-1.2,0.2-1.8,0.6
		c-0.3,0.2-0.5,0.4-0.7,0.9c-0.1,0.4,0,0.9,0.2,1.2c0.4,0.6,0.9,1,1.3,1.3c1.9,1.4,4,2.4,6,3.6c2,1.2,4,2.4,5.9,3.7
		c1,0.7,2,1.5,2.9,2.3c0.2,0.4,0.3,0.8,0.2,1.3c-0.1,0.6-0.4,1.1-0.8,1.6c-4.2-1.3-8-3.7-11.8-5.9c-2-1.1-4-2.2-6.1-3.1
		c-1.8-0.8-3.8-1.3-5.8-1.6C42.5,80.2,49,71.2,55.5,62c1.6-2.3,3.3-4.7,4.9-7.1l1.2-1.8c0.3-0.5,0.8-0.9,1.3-1.1
		c1.1-0.5,2.5-0.7,3.8-0.6c1.4,0.1,2.7,0.3,4.1,0.6c1.3,0.3,2.7,0.9,4,1.3l0.3,0.1c0.1,0.8,0.4,1.6,0.8,2.2c0.5,0.7,1.1,1.2,1.9,1.6
		c0.8,0.3,1.8,0.4,2.6,0c0.4-0.2,0.8-0.5,1.1-1c0.1-0.2,0.2-0.5,0.2-0.8c0-0.3-0.1-0.7-0.3-0.9c-0.4-0.5-0.9-0.7-1.2-0.8l-1-0.4
		l-2.8-1c0.1-0.3,0.1-0.6,0.3-1c0.5-1.2,1.3-2.5,1.9-3.8l1.9-3.9c1.2-2.6,2.5-5.2,4-7.5c0.8-1.2,1.6-2.3,2.7-3
		c1.1-0.7,2.5-1,3.8-0.9c2.7,0.1,5.3,1.6,7.8,2.9c1.2,0.7,2.4,1.5,2.8,2.8c0.4,1.2-0.2,2.7-1,3.7c-2,2.1-3.7,4.5-4.4,7.4
		c-0.6,2.2-0.5,4.5,0.1,6.7c-1.3,0.1-2.6,0.2-3.9,0.4c-0.7,0.1-1.4,0.3-2.1,0.4c-0.7,0.1-1.4,0.3-2.1,0.4c-1.4,0.3-2.8,0.6-4.2,1
		c-0.7,0.3-1.4,0.5-2,1c-0.3,0.3-0.6,0.7-0.5,1.2c0,0.2,0.1,0.4,0.2,0.6c0.1,0.2,0.3,0.4,0.4,0.4c1.3,0.8,2.6,1.2,4,1.6
		c1.4,0.4,2.7,0.8,4.1,1.1c1.4,0.3,2.8,0.5,4.3,0.4c0.4,0,0.7-0.1,1.1-0.2c0.3-0.1,0.7-0.3,0.9-0.7c0.3-0.7,0.5-1.4,0.6-2.1
		c0.2-1.4,0.2-2.9-0.4-4.2c0.5,1.3,0.5,2.8,0.3,4.2c-0.1,0.7-0.3,1.4-0.7,2c-0.1,0.3-0.5,0.4-0.8,0.5c-0.3,0.1-0.7,0.1-1,0.1
		c-1.4,0-2.8-0.2-4.2-0.5c-1.4-0.3-2.7-0.7-4.1-1.1c-1.3-0.5-2.7-0.9-3.8-1.6c-0.1-0.1-0.2-0.2-0.3-0.3c-0.1-0.1-0.1-0.3-0.1-0.4
		c0-0.2,0.1-0.5,0.4-0.7c0.5-0.4,1.1-0.7,1.8-0.9c1.3-0.4,2.7-0.7,4.1-0.9c0.7-0.1,1.4-0.2,2.1-0.4c0.7-0.1,1.4-0.3,2.1-0.4
		c1.3-0.2,2.7-0.3,4-0.3c0.1,0.3,0.2,0.6,0.4,0.9c-0.1-0.3-0.2-0.6-0.3-0.9c1.4,0,2.9,0.1,4.3,0.3c2.7,0.5,5.4,1.6,7,3.8
		c0.4,0.5,0.7,1.1,1,1.7c0.3,0.6,0.5,1.3,0.5,1.9c0.1,1.3-0.3,2.6-0.9,3.8c-1.3,2.3-3.8,4-6.4,4l-2.4,0l2.1,1.2
		c1.3,0.7,2.3,2,2.7,3.4c0.4,1.4,0.1,2.9-0.9,4c-1,1.1-2.4,1.8-3.9,2.1c-1.5,0.4-3.1,0.5-4.7,0.4c-3.2-0.1-6.4-0.8-9.5-1.6
		c-3.1-0.9-6.2-2-9.2-3.2l-0.6,1.4c3.2,1.3,6.3,2.8,9.2,4.5c1.5,0.9,2.9,1.8,4.1,2.9c1.3,1.1,2.4,2.3,3.1,3.7
		c0.7,1.4,0.4,2.9-0.7,3.9c-1.1,1-2.7,1.6-4.3,1.8c-3.3,0.5-6.7-0.2-9.7-1.6l-3.1-1.5l2.3,2.5c0.8,0.8,1.5,1.7,2.2,2.5
		c0.7,0.9,1.3,1.8,1.7,2.7c0.4,0.9,0.6,1.9,0.2,2.8c-0.3,0.8-1.2,1.5-2.1,1.9c-2.5,1-5.1,1.6-7.8,1.7c-2.7,0.1-5.4-0.2-8.1-0.7
		c-5.4-1-10.6-2.9-15.9-4.3c-4.5-1.8-9.1-3.7-13.7-5.1c-4.7-1.5-9.5-2.6-14.4-2.6c4.9,0.2,9.7,1.4,14.3,3
		C37.5,99.4,42,101.5,46.5,103.3z M61.5,84c-1-0.6-2-1.2-2.9-1.9c-1.9-1.3-3.8-2.7-5.4-4.3c-0.4-0.4-0.8-0.8-1.1-1.3
		c-0.1-0.2-0.2-0.5-0.2-0.5c0,0,0,0,0-0.1c0,0,0.2-0.1,0.3-0.1c1-0.4,2.2-0.5,3.3-0.6c2.3-0.1,4.6,0.1,6.8,0.5
		c1.1,0.2,2.2,0.5,3.3,0.8c1.1,0.3,2.1,0.8,3,1.4c0.9,0.6,1.5,1.5,1.6,2.5c0.1,1-0.5,1.9-1.3,2.6c-1.7,1.3-4,1.7-6.3,1.7
		c0,0-0.1,0-0.1,0C62.2,84.5,61.9,84.3,61.5,84z M80.5,55.4c0,0.1,0.1,0.1,0,0.3c-0.1,0.2-0.3,0.3-0.5,0.4c-0.9,0.4-2.2-0.1-2.9-1.1
		c-0.2-0.3-0.4-0.6-0.5-1l2.3,0.8C79.5,55,80.4,55.2,80.5,55.4z"/>
</g>
</svg>
